<?xml version="1.0" standalone="no"?>
<svg xmlns:xlink="http://www.w3.org/1999/xlink" id="wave" style="transform:rotate(0deg); transition: 0.3s" viewBox="0 0 1440 490" version="1.1" xmlns="http://www.w3.org/2000/svg"><defs><linearGradient id="sw-gradient-0" x1="0" x2="0" y1="1" y2="0"><stop stop-color="rgba(0, 119, 182, 1)" offset="0%"/><stop stop-color="rgba(0, 180, 216, 1)" offset="100%"/></linearGradient></defs><path style="transform:translate(0, 0px); opacity:1" fill="url(#sw-gradient-0)" d="M0,294L80,285.8C160,278,320,261,480,220.5C640,180,800,114,960,98C1120,82,1280,114,1440,171.5C1600,229,1760,310,1920,285.8C2080,261,2240,131,2400,65.3C2560,0,2720,0,2880,65.3C3040,131,3200,261,3360,277.7C3520,294,3680,196,3840,171.5C4000,147,4160,196,4320,236.8C4480,278,4640,310,4800,277.7C4960,245,5120,147,5280,130.7C5440,114,5600,180,5760,179.7C5920,180,6080,114,6240,81.7C6400,49,6560,49,6720,40.8C6880,33,7040,16,7200,24.5C7360,33,7520,65,7680,65.3C7840,65,8000,33,8160,49C8320,65,8480,131,8640,155.2C8800,180,8960,163,9120,187.8C9280,212,9440,278,9600,318.5C9760,359,9920,376,10080,392C10240,408,10400,425,10560,400.2C10720,376,10880,310,11040,269.5C11200,229,11360,212,11440,204.2L11520,196L11520,490L11440,490C11360,490,11200,490,11040,490C10880,490,10720,490,10560,490C10400,490,10240,490,10080,490C9920,490,9760,490,9600,490C9440,490,9280,490,9120,490C8960,490,8800,490,8640,490C8480,490,8320,490,8160,490C8000,490,7840,490,7680,490C7520,490,7360,490,7200,490C7040,490,6880,490,6720,490C6560,490,6400,490,6240,490C6080,490,5920,490,5760,490C5600,490,5440,490,5280,490C5120,490,4960,490,4800,490C4640,490,4480,490,4320,490C4160,490,4000,490,3840,490C3680,490,3520,490,3360,490C3200,490,3040,490,2880,490C2720,490,2560,490,2400,490C2240,490,2080,490,1920,490C1760,490,1600,490,1440,490C1280,490,1120,490,960,490C800,490,640,490,480,490C320,490,160,490,80,490L0,490Z"/><defs><linearGradient id="sw-gradient-1" x1="0" x2="0" y1="1" y2="0"><stop stop-color="rgba(0, 119, 182, 1)" offset="0%"/><stop stop-color="rgba(0, 180, 216, 1)" offset="100%"/></linearGradient></defs><path style="transform:translate(0, 50px); opacity:0.9" fill="url(#sw-gradient-1)" d="M0,49L80,49C160,49,320,49,480,98C640,147,800,245,960,277.7C1120,310,1280,278,1440,285.8C1600,294,1760,343,1920,318.5C2080,294,2240,196,2400,171.5C2560,147,2720,196,2880,196C3040,196,3200,147,3360,179.7C3520,212,3680,327,3840,359.3C4000,392,4160,343,4320,302.2C4480,261,4640,229,4800,196C4960,163,5120,131,5280,163.3C5440,196,5600,294,5760,351.2C5920,408,6080,425,6240,408.3C6400,392,6560,343,6720,285.8C6880,229,7040,163,7200,179.7C7360,196,7520,294,7680,334.8C7840,376,8000,359,8160,326.7C8320,294,8480,245,8640,236.8C8800,229,8960,261,9120,236.8C9280,212,9440,131,9600,98C9760,65,9920,82,10080,81.7C10240,82,10400,65,10560,98C10720,131,10880,212,11040,228.7C11200,245,11360,196,11440,171.5L11520,147L11520,490L11440,490C11360,490,11200,490,11040,490C10880,490,10720,490,10560,490C10400,490,10240,490,10080,490C9920,490,9760,490,9600,490C9440,490,9280,490,9120,490C8960,490,8800,490,8640,490C8480,490,8320,490,8160,490C8000,490,7840,490,7680,490C7520,490,7360,490,7200,490C7040,490,6880,490,6720,490C6560,490,6400,490,6240,490C6080,490,5920,490,5760,490C5600,490,5440,490,5280,490C5120,490,4960,490,4800,490C4640,490,4480,490,4320,490C4160,490,4000,490,3840,490C3680,490,3520,490,3360,490C3200,490,3040,490,2880,490C2720,490,2560,490,2400,490C2240,490,2080,490,1920,490C1760,490,1600,490,1440,490C1280,490,1120,490,960,490C800,490,640,490,480,490C320,490,160,490,80,490L0,490Z"/><defs><linearGradient id="sw-gradient-2" x1="0" x2="0" y1="1" y2="0"><stop stop-color="rgba(0, 119, 182, 1)" offset="0%"/><stop stop-color="rgba(0, 180, 216, 1)" offset="100%"/></linearGradient></defs><path style="transform:translate(0, 100px); opacity:0.8" fill="url(#sw-gradient-2)" d="M0,441L80,408.3C160,376,320,310,480,277.7C640,245,800,245,960,277.7C1120,310,1280,376,1440,367.5C1600,359,1760,278,1920,204.2C2080,131,2240,65,2400,49C2560,33,2720,65,2880,89.8C3040,114,3200,131,3360,163.3C3520,196,3680,245,3840,220.5C4000,196,4160,98,4320,98C4480,98,4640,196,4800,196C4960,196,5120,98,5280,122.5C5440,147,5600,294,5760,294C5920,294,6080,147,6240,73.5C6400,0,6560,0,6720,32.7C6880,65,7040,131,7200,179.7C7360,229,7520,261,7680,285.8C7840,310,8000,327,8160,302.2C8320,278,8480,212,8640,187.8C8800,163,8960,180,9120,196C9280,212,9440,229,9600,212.3C9760,196,9920,147,10080,163.3C10240,180,10400,261,10560,277.7C10720,294,10880,245,11040,253.2C11200,261,11360,327,11440,359.3L11520,392L11520,490L11440,490C11360,490,11200,490,11040,490C10880,490,10720,490,10560,490C10400,490,10240,490,10080,490C9920,490,9760,490,9600,490C9440,490,9280,490,9120,490C8960,490,8800,490,8640,490C8480,490,8320,490,8160,490C8000,490,7840,490,7680,490C7520,490,7360,490,7200,490C7040,490,6880,490,6720,490C6560,490,6400,490,6240,490C6080,490,5920,490,5760,490C5600,490,5440,490,5280,490C5120,490,4960,490,4800,490C4640,490,4480,490,4320,490C4160,490,4000,490,3840,490C3680,490,3520,490,3360,490C3200,490,3040,490,2880,490C2720,490,2560,490,2400,490C2240,490,2080,490,1920,490C1760,490,1600,490,1440,490C1280,490,1120,490,960,490C800,490,640,490,480,490C320,490,160,490,80,490L0,490Z"/></svg>